<svg version="1" xmlns="http://www.w3.org/2000/svg" width="650.667" height="650.667" viewBox="0 0 488.000000 488.000000"><path d="M10 30c0 2.9.1 3 5 3s5-.1 5-3-.1-3-5-3-5 .1-5 3zM26 30c0 2.7.3 3 3 3s3-.3 3-3-.3-3-3-3-3 .3-3 3zM38 30c0 2.7.3 3 3 3s3-.3 3-3-.3-3-3-3-3 .3-3 3zM50 30c0 2.7.3 3 3 3s3-.3 3-3-.3-3-3-3-3 .3-3 3zM62 30c0 2.7.3 3 3 3s3-.3 3-3-.3-3-3-3-3 .3-3 3zM74 30c0 2.7.3 3 3 3s3-.3 3-3-.3-3-3-3-3 .3-3 3zM86 30c0 2.7.3 3 3 3s3-.3 3-3-.3-3-3-3-3 .3-3 3zM98 30c0 2.7.3 3 3 3s3-.3 3-3-.3-3-3-3-3 .3-3 3zM110 30c0 2.7.3 3 3 3s3-.3 3-3-.3-3-3-3-3 .3-3 3zM122 30c0 2.7.3 3 3 3s3-.3 3-3-.3-3-3-3-3 .3-3 3zM134 30c0 2.7.3 3 3 3s3-.3 3-3-.3-3-3-3-3 .3-3 3zM146 30c0 2.7.3 3 3 3s3-.3 3-3-.3-3-3-3-3 .3-3 3zM158 30c0 2.7.3 3 3 3s3-.3 3-3-.3-3-3-3-3 .3-3 3zM170 30c0 2.7.3 3 3 3s3-.3 3-3-.3-3-3-3-3 .3-3 3zM182 30c0 2.7.3 3 3 3s3-.3 3-3-.3-3-3-3-3 .3-3 3zM194 30c0 2.7.3 3 3 3s3-.3 3-3-.3-3-3-3-3 .3-3 3zM206 30c0 2.7.3 3 3 3s3-.3 3-3-.3-3-3-3-3 .3-3 3zM218 30c0 2.7.3 3 3 3s3-.3 3-3-.3-3-3-3-3 .3-3 3zM230 30c0 2.7.3 3 3 3s3-.3 3-3-.3-3-3-3-3 .3-3 3zM242 30c0 2.7.3 3 3 3s3-.3 3-3-.3-3-3-3-3 .3-3 3zM254 30c0 2.7.3 3 3 3s3-.3 3-3-.3-3-3-3-3 .3-3 3zM266 30c0 2.7.3 3 3 3s3-.3 3-3-.3-3-3-3-3 .3-3 3zM278 30c0 2.7.3 3 3 3s3-.3 3-3-.3-3-3-3-3 .3-3 3zM290 30c0 2.7.3 3 3 3s3-.3 3-3-.3-3-3-3-3 .3-3 3zM302 30c0 2.7.3 3 3 3s3-.3 3-3-.3-3-3-3-3 .3-3 3zM314 30c0 2.7.3 3 3 3s3-.3 3-3-.3-3-3-3-3 .3-3 3zM326 30c0 2.7.3 3 3 3s3-.3 3-3-.3-3-3-3-3 .3-3 3zM338 30c0 2.7.3 3 3 3s3-.3 3-3-.3-3-3-3-3 .3-3 3zM350 30c0 2.7.3 3 3 3s3-.3 3-3-.3-3-3-3-3 .3-3 3zM362 30c0 2.7.3 3 3 3s3-.3 3-3-.3-3-3-3-3 .3-3 3zM374 30c0 2.7.3 3 3 3s3-.3 3-3-.3-3-3-3-3 .3-3 3zM386 30c0 2.7.3 3 3 3s3-.3 3-3-.3-3-3-3-3 .3-3 3zM398 30c0 2.7.3 3 3 3s3-.3 3-3-.3-3-3-3-3 .3-3 3zM410 30c0 2.7.3 3 3 3s3-.3 3-3-.3-3-3-3-3 .3-3 3zM422 30c0 2.7.3 3 3 3s3-.3 3-3-.3-3-3-3-3 .3-3 3zM434 30c0 2.7.3 3 3 3s3-.3 3-3-.3-3-3-3-3 .3-3 3zM446 30c0 2.7.3 3 3 3s3-.3 3-3-.3-3-3-3-3 .3-3 3zM458 30c0 2.7.3 3 3 3s3-.3 3-3-.3-3-3-3-3 .3-3 3zM470 30c0 2.8.2 3 4 3s4-.2 4-3-.2-3-4-3-4 .2-4 3zM10 42c0 2.7.3 3 3 3s3-.3 3-3-.3-3-3-3-3 .3-3 3zM472 42c0 2.7.3 3 3 3s3-.3 3-3-.3-3-3-3-3 .3-3 3zM10 54c0 2.7.3 3 3 3s3-.3 3-3-.3-3-3-3-3 .3-3 3zM472 54c0 2.7.3 3 3 3s3-.3 3-3-.3-3-3-3-3 .3-3 3zM10 66c0 2.7.3 3 3 3s3-.3 3-3-.3-3-3-3-3 .3-3 3zM472 66c0 2.7.3 3 3 3s3-.3 3-3-.3-3-3-3-3 .3-3 3zM10 78c0 2.7.3 3 3 3s3-.3 3-3-.3-3-3-3-3 .3-3 3zM472 78c0 2.7.3 3 3 3s3-.3 3-3-.3-3-3-3-3 .3-3 3zM10 90c0 2.7.3 3 3 3s3-.3 3-3-.3-3-3-3-3 .3-3 3zM472 90c0 2.7.3 3 3 3s3-.3 3-3-.3-3-3-3-3 .3-3 3zM10 102c0 2.7.3 3 3 3s3-.3 3-3-.3-3-3-3-3 .3-3 3zM472 102c0 2.7.3 3 3 3s3-.3 3-3-.3-3-3-3-3 .3-3 3zM10 114c0 2.7.3 3 3 3s3-.3 3-3-.3-3-3-3-3 .3-3 3zM472 114c0 2.7.3 3 3 3s3-.3 3-3-.3-3-3-3-3 .3-3 3zM10 126c0 2.7.3 3 3 3s3-.3 3-3-.3-3-3-3-3 .3-3 3zM472 126c0 2.7.3 3 3 3s3-.3 3-3-.3-3-3-3-3 .3-3 3zM156.8 218.7l-.4 87.8-2.6 9.8c-6.6 24.1-18.6 36-40.8 40.3-13.5 2.6-34 .5-43.8-4.5-6.1-3.1-12.7-9.6-15.9-15.8-5-9.2-6.5-16.8-6.4-32.1.1-13.4 0-13.4-2.2-12.9-1.2.3-4.8 1-7.9 1.7-3.4.8-5.9 1.9-6.3 2.9-.3.8-.8 5.8-1.1 11.1-1 17.1 3 32 11.7 43.5 6.1 8 14.3 14.2 24.1 18.3 10.1 4.2 18 5.5 33.8 5.5 19.3-.1 31-3.2 44.2-12 13.8-9.1 24-24.3 29-43.3 2.2-8.4 2.2-9.1 2.5-98.3l.4-89.7h-18l-.3 87.7zM248.2 250.7l.3 119.8 8.4.3c6.1.2 8.7-.1 9.3-1 .4-.7.8-26.1.8-56.3l-.1-55 74.1-.3 74-.2v113h18V131h-18v109l-2.2.5c-1.3.3-34.6.4-74.1.3l-71.8-.3.1-53.1c0-29.2-.2-53.9-.6-54.8-.5-1.3-2.2-1.6-9.5-1.6H248l.2 119.7zM10 138c0 2.7.3 3 3 3s3-.3 3-3-.3-3-3-3-3 .3-3 3zM472 138c0 2.7.3 3 3 3s3-.3 3-3-.3-3-3-3-3 .3-3 3zM10 150c0 2.7.3 3 3 3s3-.3 3-3-.3-3-3-3-3 .3-3 3zM472 150c0 2.7.3 3 3 3s3-.3 3-3-.3-3-3-3-3 .3-3 3zM10 162c0 2.7.3 3 3 3s3-.3 3-3-.3-3-3-3-3 .3-3 3zM472 162c0 2.7.3 3 3 3s3-.3 3-3-.3-3-3-3-3 .3-3 3zM10 174c0 2.7.3 3 3 3s3-.3 3-3-.3-3-3-3-3 .3-3 3zM472 174c0 2.7.3 3 3 3s3-.3 3-3-.3-3-3-3-3 .3-3 3zM10 186c0 2.7.3 3 3 3s3-.3 3-3-.3-3-3-3-3 .3-3 3zM472 186c0 2.7.3 3 3 3s3-.3 3-3-.3-3-3-3-3 .3-3 3zM10 198c0 2.7.3 3 3 3s3-.3 3-3-.3-3-3-3-3 .3-3 3zM472 198c0 2.7.3 3 3 3s3-.3 3-3-.3-3-3-3-3 .3-3 3zM10 210c0 2.7.3 3 3 3s3-.3 3-3-.3-3-3-3-3 .3-3 3zM472 210c0 2.7.3 3 3 3s3-.3 3-3-.3-3-3-3-3 .3-3 3zM10 222c0 2.7.3 3 3 3s3-.3 3-3-.3-3-3-3-3 .3-3 3zM472 222c0 2.7.3 3 3 3s3-.3 3-3-.3-3-3-3-3 .3-3 3zM10 234c0 2.7.3 3 3 3s3-.3 3-3-.3-3-3-3-3 .3-3 3zM472 234c0 2.7.3 3 3 3s3-.3 3-3-.3-3-3-3-3 .3-3 3zM10 246c0 2.7.3 3 3 3s3-.3 3-3-.3-3-3-3-3 .3-3 3zM472 246c0 2.7.3 3 3 3s3-.3 3-3-.3-3-3-3-3 .3-3 3zM10 258c0 2.7.3 3 3 3s3-.3 3-3-.3-3-3-3-3 .3-3 3zM472 258c0 2.7.3 3 3 3s3-.3 3-3-.3-3-3-3-3 .3-3 3zM10 270c0 2.7.3 3 3 3s3-.3 3-3-.3-3-3-3-3 .3-3 3zM472 270c0 2.7.3 3 3 3s3-.3 3-3-.3-3-3-3-3 .3-3 3zM10 282c0 2.7.3 3 3 3s3-.3 3-3-.3-3-3-3-3 .3-3 3zM472 282c0 2.7.3 3 3 3s3-.3 3-3-.3-3-3-3-3 .3-3 3zM10 294c0 2.7.3 3 3 3s3-.3 3-3-.3-3-3-3-3 .3-3 3zM472 294c0 2.7.3 3 3 3s3-.3 3-3-.3-3-3-3-3 .3-3 3zM10 306c0 2.7.3 3 3 3s3-.3 3-3-.3-3-3-3-3 .3-3 3zM472 306c0 2.7.3 3 3 3s3-.3 3-3-.3-3-3-3-3 .3-3 3zM10 318c0 2.7.3 3 3 3s3-.3 3-3-.3-3-3-3-3 .3-3 3zM472 318c0 2.7.3 3 3 3s3-.3 3-3-.3-3-3-3-3 .3-3 3zM10 330c0 2.7.3 3 3 3s3-.3 3-3-.3-3-3-3-3 .3-3 3zM472 330c0 2.7.3 3 3 3s3-.3 3-3-.3-3-3-3-3 .3-3 3zM10 342c0 2.7.3 3 3 3s3-.3 3-3-.3-3-3-3-3 .3-3 3zM472 342c0 2.7.3 3 3 3s3-.3 3-3-.3-3-3-3-3 .3-3 3zM10 354c0 2.7.3 3 3 3s3-.3 3-3-.3-3-3-3-3 .3-3 3zM472 354c0 2.7.3 3 3 3s3-.3 3-3-.3-3-3-3-3 .3-3 3zM10 366c0 2.7.3 3 3 3s3-.3 3-3-.3-3-3-3-3 .3-3 3zM472 366c0 2.7.3 3 3 3s3-.3 3-3-.3-3-3-3-3 .3-3 3zM10 378c0 2.7.3 3 3 3s3-.3 3-3-.3-3-3-3-3 .3-3 3zM472 378c0 2.7.3 3 3 3s3-.3 3-3-.3-3-3-3-3 .3-3 3zM10 390c0 2.7.3 3 3 3s3-.3 3-3-.3-3-3-3-3 .3-3 3zM472 390c0 2.7.3 3 3 3s3-.3 3-3-.3-3-3-3-3 .3-3 3zM10 402c0 2.7.3 3 3 3s3-.3 3-3-.3-3-3-3-3 .3-3 3zM472 402c0 2.7.3 3 3 3s3-.3 3-3-.3-3-3-3-3 .3-3 3zM10 414c0 2.7.3 3 3 3s3-.3 3-3-.3-3-3-3-3 .3-3 3zM472 414c0 2.7.3 3 3 3s3-.3 3-3-.3-3-3-3-3 .3-3 3zM10 426c0 2.7.3 3 3 3s3-.3 3-3-.3-3-3-3-3 .3-3 3zM472 426c0 2.7.3 3 3 3s3-.3 3-3-.3-3-3-3-3 .3-3 3zM10 438c0 2.7.3 3 3 3s3-.3 3-3-.3-3-3-3-3 .3-3 3zM472 438c0 2.7.3 3 3 3s3-.3 3-3-.3-3-3-3-3 .3-3 3zM10 450c0 2.7.3 3 3 3s3-.3 3-3-.3-3-3-3-3 .3-3 3zM472 450c0 2.7.3 3 3 3s3-.3 3-3-.3-3-3-3-3 .3-3 3zM10 462c0 2.9.1 3 5 3s5-.1 5-3-.1-3-5-3-5 .1-5 3zM26 462c0 2.7.3 3 3 3s3-.3 3-3-.3-3-3-3-3 .3-3 3zM38 462c0 2.7.3 3 3 3s3-.3 3-3-.3-3-3-3-3 .3-3 3zM50 462c0 2.7.3 3 3 3s3-.3 3-3-.3-3-3-3-3 .3-3 3zM62 462c0 2.7.3 3 3 3s3-.3 3-3-.3-3-3-3-3 .3-3 3zM74 462c0 2.7.3 3 3 3s3-.3 3-3-.3-3-3-3-3 .3-3 3zM86 462c0 2.7.3 3 3 3s3-.3 3-3-.3-3-3-3-3 .3-3 3zM98 462c0 2.7.3 3 3 3s3-.3 3-3-.3-3-3-3-3 .3-3 3zM110 462c0 2.7.3 3 3 3s3-.3 3-3-.3-3-3-3-3 .3-3 3zM122 462c0 2.7.3 3 3 3s3-.3 3-3-.3-3-3-3-3 .3-3 3zM134 462c0 2.7.3 3 3 3s3-.3 3-3-.3-3-3-3-3 .3-3 3zM146 462c0 2.7.3 3 3 3s3-.3 3-3-.3-3-3-3-3 .3-3 3zM158 462c0 2.7.3 3 3 3s3-.3 3-3-.3-3-3-3-3 .3-3 3zM170 462c0 2.7.3 3 3 3s3-.3 3-3-.3-3-3-3-3 .3-3 3zM182 462c0 2.7.3 3 3 3s3-.3 3-3-.3-3-3-3-3 .3-3 3zM194 462c0 2.7.3 3 3 3s3-.3 3-3-.3-3-3-3-3 .3-3 3zM206 462c0 2.7.3 3 3 3s3-.3 3-3-.3-3-3-3-3 .3-3 3zM218 462c0 2.7.3 3 3 3s3-.3 3-3-.3-3-3-3-3 .3-3 3zM230 462c0 2.7.3 3 3 3s3-.3 3-3-.3-3-3-3-3 .3-3 3zM242 462c0 2.7.3 3 3 3s3-.3 3-3-.3-3-3-3-3 .3-3 3zM254 462c0 2.7.3 3 3 3s3-.3 3-3-.3-3-3-3-3 .3-3 3zM266 462c0 2.7.3 3 3 3s3-.3 3-3-.3-3-3-3-3 .3-3 3zM278 462c0 2.7.3 3 3 3s3-.3 3-3-.3-3-3-3-3 .3-3 3zM290 462c0 2.7.3 3 3 3s3-.3 3-3-.3-3-3-3-3 .3-3 3zM302 462c0 2.7.3 3 3 3s3-.3 3-3-.3-3-3-3-3 .3-3 3zM314 462c0 2.7.3 3 3 3s3-.3 3-3-.3-3-3-3-3 .3-3 3zM326 462c0 2.7.3 3 3 3s3-.3 3-3-.3-3-3-3-3 .3-3 3zM338 462c0 2.7.3 3 3 3s3-.3 3-3-.3-3-3-3-3 .3-3 3zM350 462c0 2.7.3 3 3 3s3-.3 3-3-.3-3-3-3-3 .3-3 3zM362 462c0 2.7.3 3 3 3s3-.3 3-3-.3-3-3-3-3 .3-3 3zM374 462c0 2.7.3 3 3 3s3-.3 3-3-.3-3-3-3-3 .3-3 3zM386 462c0 2.7.3 3 3 3s3-.3 3-3-.3-3-3-3-3 .3-3 3zM398 462c0 2.7.3 3 3 3s3-.3 3-3-.3-3-3-3-3 .3-3 3zM410 462c0 2.7.3 3 3 3s3-.3 3-3-.3-3-3-3-3 .3-3 3zM422 462c0 2.7.3 3 3 3s3-.3 3-3-.3-3-3-3-3 .3-3 3zM434 462c0 2.7.3 3 3 3s3-.3 3-3-.3-3-3-3-3 .3-3 3zM446 462c0 2.7.3 3 3 3s3-.3 3-3-.3-3-3-3-3 .3-3 3zM458 462c0 2.7.3 3 3 3s3-.3 3-3-.3-3-3-3-3 .3-3 3zM470 462c0 2.8.2 3 4 3s4-.2 4-3-.2-3-4-3-4 .2-4 3z"/></svg>